<svg width="587" height="313" viewBox="0 0 587 313" fill="none" xmlns="http://www.w3.org/2000/svg">
<path d="M585.383 155.838C584.782 133.412 581.747 111.118 576.331 89.3485C567.709 56.2476 549.748 30.5185 519.533 13.8038C499.95 2.98239 479.321 -2.41806 456.926 1.48341C443.892 3.74215 433.69 10.1693 428.188 22.8388C425.615 28.8554 423.555 35.0788 422.03 41.4426C419.77 51.1089 416.96 60.6385 413.614 69.9849C409.509 80.7036 401.976 86.0425 390.481 86.4121C378.329 86.5735 366.216 84.9829 354.518 81.6893C342.386 78.6913 330.501 75.2416 317.918 73.9069C309.66 72.8544 301.344 72.3126 293.019 72.2847C289.879 72.182 282.099 72.9007 276.023 73.2703C261.629 74.7049 247.386 77.3774 233.45 81.2581C220.436 84.8515 207.32 87.4183 193.711 86.3505C184.761 85.6729 177.925 81.8741 174.005 73.4757C171.717 68.3362 169.823 63.0299 168.339 57.6029C165.158 46.9662 163.228 36.0011 159.205 25.6109C157.036 19.5075 153.286 14.0899 148.338 9.91202C143.39 5.73414 137.421 2.94591 131.042 1.83248C122.371 -0.215927 113.383 -0.550736 104.583 0.846851C65.89 7.58201 36.5777 27.7875 19.1299 63.4756C7.61432 86.987 3.40632 112.511 1.51785 138.425C-0.199337 165.619 -0.459716 192.887 0.737829 220.109C0.737829 225.818 0.737829 231.547 0.737829 237.296C0.847305 259.281 1.53153 281.246 2.79051 303.19C2.71617 305.292 3.45088 307.342 4.84319 308.919C10.6933 314.832 18.0625 314.258 23.0915 307.338C25.8176 303.084 27.7381 298.365 28.757 293.415C33.7655 274.668 38.9177 256.003 47.0464 238.302C53.5944 223.928 61.5588 210.581 73.4644 199.904C87.8979 186.854 106.415 179.225 125.849 178.322C145.575 177.131 163.433 181.813 176.55 198.138C178.233 200.191 180.101 202.244 181.784 204.298C189.486 213.933 199.776 221.17 211.446 225.16C232.342 232.553 254.552 232.183 275.674 231.813C286.964 231.608 294.908 231.813 304.596 231.813C320.813 231.67 333.827 232.45 348.688 230.848C372.561 228.302 393.047 219.883 407.949 200.047C415.79 189.637 425.992 182.244 439.335 179.883C447.441 178.267 455.741 177.859 463.967 178.671C491.247 181.916 512.574 194.873 527.703 217.809C539.403 235.551 546.362 255.387 552.335 275.633C554.921 284.36 556.686 293.313 559.868 301.876C561.218 305.894 563.86 309.352 567.381 311.711C573.416 315.695 582.5 309.5 583.248 303.128C583.5 294.5 584.172 286.105 584.336 277.584C585.137 236.967 587.087 196.454 585.383 155.838ZM41.422 81.1143C41.4991 70.9712 44.5784 61.0783 50.2711 52.6843C55.9638 44.2903 64.0148 37.7715 73.4078 33.9507C82.8008 30.13 93.1149 29.1785 103.048 31.2165C112.981 33.2544 122.088 38.1905 129.219 45.4015C136.35 52.6125 141.186 61.7753 143.116 71.7332C145.047 81.6912 143.984 91.998 140.064 101.353C136.143 110.707 129.541 118.69 121.089 124.294C112.637 129.898 102.715 132.872 92.5749 132.839H92.2054C78.6166 132.704 65.6363 127.182 56.1121 117.485C46.5879 107.788 41.2975 94.7082 41.4015 81.1143H41.422ZM142.003 170.868C130.714 169.39 119.793 171.156 108.996 173.682C97.1785 176.142 85.9444 180.855 75.9071 187.563C76.1575 185.693 76.9741 183.944 78.2471 182.552C78.4729 182.306 78.7193 182.08 78.945 181.854L79.684 181.218L80.4435 180.622C81.3467 179.945 82.2909 179.287 83.2352 178.569C86.0603 176.651 89.1243 175.111 92.3491 173.99C105.918 169.304 120.089 166.593 134.429 165.94H137.323C139.027 165.736 140.746 166.179 142.138 167.184C143.53 168.188 144.493 169.679 144.836 171.361C143.81 171.135 142.845 170.992 141.901 170.868H142.003ZM510.111 187.439H509.947C487.696 174.626 467.148 169.349 442.065 171.177H441.285C441.591 170.053 442.114 168.999 442.824 168.076C442.981 167.872 443.16 167.686 443.358 167.521C443.501 167.398 443.645 167.255 443.789 167.152C444.013 166.978 444.253 166.826 444.507 166.7C444.758 166.563 445.018 166.446 445.287 166.351C445.459 166.282 445.638 166.233 445.821 166.207C446.408 166.041 447.018 165.972 447.627 166.002C452.919 166.025 458.204 166.368 463.454 167.029C467.778 167.563 472.068 168.302 476.324 169.246C477.207 169.452 478.089 169.636 478.972 169.862C480.84 170.314 482.687 170.786 484.514 171.32L486.875 172.018L489.461 172.84C492.068 173.702 494.634 174.626 497.179 175.632C500.412 177 503.427 178.833 506.129 181.074C507.195 181.813 508.099 182.762 508.784 183.864C509.469 184.966 509.921 186.197 510.111 187.481V187.439ZM494.162 132.819C487.373 132.939 480.628 131.706 474.32 129.192C468.012 126.679 462.268 122.934 457.421 118.177C452.574 113.421 448.722 107.746 446.089 101.485C443.456 95.2246 442.095 88.5021 442.085 81.7098C441.675 54.2148 464.665 30.9908 492.704 30.4774C506.152 30.4753 519.059 35.7681 528.636 45.2113C538.213 54.6545 543.689 67.4892 543.881 80.9397C544.072 94.3903 538.964 107.376 529.659 117.088C520.355 126.8 507.604 132.459 494.162 132.839V132.819Z" fill="#35977F"/>
<path d="M126.238 206.927C132.939 206.975 139.475 209.008 145.023 212.768C150.571 216.528 154.882 221.847 157.411 228.055C159.941 234.262 160.577 241.08 159.238 247.649C157.9 254.217 154.647 260.242 149.89 264.964C145.133 269.685 139.085 272.892 132.508 274.179C125.932 275.467 119.122 274.777 112.936 272.198C106.751 269.619 101.467 265.265 97.7523 259.686C94.0372 254.107 92.0567 247.552 92.0606 240.849C92.0631 236.372 92.9509 231.941 94.6727 227.809C96.3944 223.677 98.9162 219.926 102.093 216.774C105.27 213.621 109.038 211.127 113.182 209.437C117.326 207.747 121.763 206.894 126.238 206.927Z" fill="#35977F"/>
<path d="M271.404 257.03C271.405 255.772 271.84 254.554 272.636 253.58C273.664 252.531 275.067 251.932 276.536 251.917C287.474 251.28 298.44 251.28 309.379 251.917C310.028 251.881 310.679 251.976 311.291 252.197C311.903 252.418 312.464 252.76 312.941 253.203C313.418 253.646 313.801 254.18 314.067 254.774C314.333 255.368 314.477 256.009 314.49 256.66C314.757 264.422 314.818 272.184 314.859 279.925C314.859 283.478 313.464 284.915 309.892 284.586C298.611 283.58 287.263 283.58 275.982 284.586C275.34 284.713 274.68 284.707 274.041 284.569C273.402 284.432 272.798 284.165 272.266 283.786C271.809 283.26 271.464 282.647 271.252 281.983C271.04 281.319 270.966 280.619 271.035 279.925C270.973 262.964 271.137 260.972 271.404 257.03Z" fill="#35977F"/>
<path d="M251.472 264.278C251.997 264.229 252.527 264.291 253.027 264.46C253.526 264.63 253.985 264.902 254.372 265.261C254.759 265.619 255.067 266.055 255.275 266.54C255.482 267.026 255.585 267.549 255.577 268.077C255.659 268.606 255.623 269.147 255.472 269.661C255.321 270.176 255.06 270.65 254.705 271.052C254.351 271.453 253.912 271.772 253.421 271.986C252.93 272.199 252.397 272.302 251.862 272.286C247.223 272.574 242.563 272.717 237.904 272.841C237.404 272.892 236.898 272.839 236.42 272.683C235.942 272.527 235.502 272.272 235.129 271.935C234.755 271.598 234.457 271.187 234.252 270.728C234.048 270.268 233.942 269.771 233.942 269.268C233.844 268.744 233.86 268.204 233.991 267.687C234.122 267.17 234.364 266.688 234.7 266.273C235.036 265.859 235.458 265.523 235.937 265.289C236.415 265.054 236.94 264.926 237.473 264.915C240.121 264.565 242.81 264.586 245.478 264.442L251.472 264.278Z" fill="#35977F"/>
<path d="M340.764 264.277C343.206 264.277 345.69 264.606 348.112 264.811C348.675 264.785 349.236 264.885 349.755 265.104C350.274 265.323 350.737 265.656 351.111 266.077C351.485 266.498 351.76 266.998 351.916 267.539C352.072 268.08 352.105 268.65 352.012 269.205C352.016 269.736 351.905 270.26 351.685 270.742C351.465 271.225 351.142 271.653 350.739 271.997C350.336 272.342 349.863 272.594 349.352 272.736C348.842 272.878 348.306 272.906 347.784 272.819C343.37 272.696 338.937 272.532 334.523 272.327C333.972 272.377 333.416 272.306 332.895 272.117C332.374 271.929 331.9 271.628 331.509 271.236C331.117 270.844 330.816 270.371 330.628 269.849C330.439 269.328 330.368 268.772 330.418 268.22C330.541 265.407 332.471 264.113 335.201 264.401L340.764 264.277Z" fill="#35977F"/>
<path d="M495.536 36.7608C489.416 36.5372 483.314 37.5504 477.594 39.74C471.874 41.9295 466.655 45.2503 462.248 49.5039C457.84 53.7575 454.336 58.8565 451.943 64.4959C449.551 70.1354 448.32 76.1996 448.324 82.3258C448.351 94.3505 453.153 105.872 461.672 114.355C465.89 118.556 470.894 121.884 476.398 124.15C481.902 126.416 487.798 127.576 493.75 127.562C499.702 127.549 505.593 126.363 511.087 124.072C516.58 121.781 521.569 118.43 525.768 114.21C529.968 109.99 533.295 104.985 535.56 99.4788C537.825 93.9729 538.984 88.0745 538.971 82.1205C538.991 57.8698 518.772 37.1921 495.536 36.7608ZM495.064 114.79C488.783 114.79 483.671 99.7387 483.671 81.1554C483.671 62.5721 488.783 47.5207 495.064 47.5207C501.345 47.5207 506.477 62.5721 506.477 81.1554C506.477 99.7387 501.366 114.975 495.064 114.975V114.79Z" fill="#E6265E"/>
<path d="M90.338 36.7821C67.3275 37.2339 47.088 57.8911 47.0469 81.9569C47.0311 91.0043 49.7239 99.8491 54.7783 107.352C59.8328 114.854 67.0173 120.671 75.4062 124.052C83.795 127.433 93.0038 128.224 101.846 126.323C110.688 124.421 118.759 119.915 125.017 113.383C131.276 106.852 135.436 98.5961 136.962 89.6784C138.488 80.7607 137.309 71.5903 133.578 63.3488C129.847 55.1072 123.734 48.1721 116.028 43.4372C108.321 38.7022 99.3735 36.3843 90.338 36.7821ZM92.1239 114.811C85.8221 114.811 80.711 99.7599 80.711 81.1767C80.711 62.5934 85.8221 47.5419 92.1239 47.5419C98.4256 47.5419 103.516 62.5934 103.516 81.1767C103.516 99.7599 98.364 114.976 92.0828 114.976L92.1239 114.811Z" fill="#E6265E"/>
<path d="M461.668 240.171C470.126 240.171 476.981 233.193 476.981 224.585C476.981 215.978 470.126 209 461.668 209C453.211 209 446.355 215.978 446.355 224.585C446.355 233.193 453.211 240.171 461.668 240.171Z" fill="#35977F"/>
<path d="M431.576 270.808C440.181 270.808 447.156 263.949 447.156 255.489C447.156 247.029 440.181 240.171 431.576 240.171C422.971 240.171 415.996 247.029 415.996 255.489C415.996 263.949 422.971 270.808 431.576 270.808Z" fill="#35977F"/>
<path d="M492.129 271.075C500.587 271.075 507.442 264.097 507.442 255.489C507.442 246.882 500.587 239.904 492.129 239.904C483.672 239.904 476.816 246.882 476.816 255.489C476.816 264.097 483.672 271.075 492.129 271.075Z" fill="#35977F"/>
<path d="M461.668 300.787C470.272 300.787 477.248 293.929 477.248 285.469C477.248 277.009 470.272 270.15 461.668 270.15C453.063 270.15 446.088 277.009 446.088 285.469C446.088 293.929 453.063 300.787 461.668 300.787Z" fill="#35977F"/>
<path d="M103.475 81.2382C103.475 99.7188 98.364 114.873 92.0828 114.873C85.8016 114.873 80.6699 99.8215 80.6699 81.2382C80.6699 62.6549 85.7811 47.6035 92.0828 47.6035C98.3846 47.6035 103.475 62.6549 103.475 81.2382Z" fill="#A01E45"/>
<path d="M506.477 81.2382C506.477 99.7188 501.366 114.873 495.064 114.873C488.763 114.873 483.672 99.8215 483.672 81.2382C483.672 62.6549 488.783 47.6035 495.064 47.6035C501.345 47.6035 506.477 62.6549 506.477 81.2382Z" fill="#A01E45"/>
</svg>
